<?xml version="1.0"?>
<svg width="563.2" height="563.2" xmlns="http://www.w3.org/2000/svg" xmlns:svg="http://www.w3.org/2000/svg" preserveAspectRatio="xMidYMid" stroke-width="0.00512" version="1.1">
 <g class="layer">
  <title>Layer 1</title>
  <g id="SVGRepo_bgCarrier" stroke-width="0"/>
  <g id="SVGRepo_tracerCarrier" stroke="#CCCCCC" stroke-linecap="round" stroke-linejoin="round" stroke-width="1.02"/>
  <g id="SVGRepo_iconCarrier">
   <g id="svg_1">
    <polygon fill="#3D3D3D" id="svg_2" points="401.818359375,342.2435607910156 416.60919189453125,304.8405456542969 459.3160705566406,304.8405456542969 439.04852294921875,248.10218811035156 464.396728515625,184.00003051757812 537,376.7691955566406 483.45770263671875,376.7691955566406 471.0511474609375,342.2435607910156 "/>
    <polygon fill="#5A0FC8" id="svg_3" points="356.1396789550781,376.76971435546875 433.8629455566406,184.00030517578125 382.3350830078125,184.0005645751953 329.1678771972656,308.5724792480469 291.36065673828125,184.00082397460938 251.7538299560547,184.00082397460938 211.15895080566406,308.5724792480469 182.53048706054688,251.80763244628906 156.62281799316406,331.6245422363281 182.92681884765625,376.76971435546875 233.6365966796875,376.76971435546875 270.32037353515625,265.0556335449219 305.29638671875,376.76971435546875 "/>
    <path d="m73.91,310.59l31.74,0c9.61,0 18.18,-1.07 25.68,-3.21l8.21,-25.29l22.94,-70.68c-1.75,-2.77 -3.74,-5.39 -5.99,-7.85c-11.77,-13.04 -29.01,-19.56 -51.69,-19.56l-79.8,0l0,192.77l48.91,0l0,-66.18zm42.01,-82.24c4.6,4.63 6.9,10.82 6.9,18.59c0,7.82 -2.02,14.02 -6.07,18.61c-4.43,5.09 -12.6,7.64 -24.5,7.64l-18.34,0l0,-51.79l18.48,0c11.09,0 18.93,2.32 23.53,6.95z" fill="#3D3D3D" id="svg_4"/>
   </g>
  </g>
 </g>
</svg>